/* XPM */
static char *out[] = {
/* columns rows colors chars-per-pixel */
"30 30 154 2 ",
"   c None",
".  c #040D0F",
"X  c #081115",
"o  c #3C2216",
"O  c #2B3031",
"+  c #333432",
"@  c #4B2411",
"#  c #472815",
"$  c #482718",
"%  c #432213",
"&  c #5F2C12",
"*  c #65290C",
"=  c #642C12",
"-  c #6A2D12",
";  c #7E3411",
":  c #72341B",
">  c #7C371A",
",  c #7D3A1B",
"<  c #7E3F21",
"1  c #7D4425",
"2  c #78462D",
"3  c #744832",
"4  c #3F4C4D",
"5  c #3E4F53",
"6  c #255759",
"7  c #25595C",
"8  c #3C5654",
"9  c #3E5957",
"0  c #3A5658",
"q  c #3E5A5B",
"w  c #2E6969",
"e  c #2C6665",
"r  c #3B6564",
"t  c #326E6E",
"y  c #377373",
"u  c #337A7A",
"i  c #3E7B7D",
"p  c #414646",
"a  c #434C47",
"s  c #414B49",
"d  c #4C4E4C",
"f  c #405755",
"g  c #4B5150",
"h  c #40585A",
"j  c #6E5849",
"k  c #735B4C",
"l  c #795E4E",
"z  c #695C52",
"x  c #466364",
"c  c #436569",
"v  c #526A66",
"b  c #566568",
"n  c #52716F",
"m  c #823711",
"M  c #843815",
"N  c #8E3C16",
"B  c #8B3F1C",
"V  c #833C1C",
"C  c #843C21",
"Z  c #8C411D",
"A  c #93421E",
"S  c #9B451D",
"D  c #8F4422",
"F  c #934622",
"G  c #994520",
"H  c #954924",
"J  c #9B4823",
"K  c #9D4D2A",
"L  c #964C2C",
"P  c #9F502B",
"I  c #9E5331",
"U  c #9D593A",
"Y  c #A44C24",
"T  c #A94E26",
"R  c #A24E2B",
"E  c #A94E28",
"W  c #A2512D",
"Q  c #AA522C",
"!  c #B3572C",
"~  c #BC5B2C",
"^  c #A65732",
"/  c #A75835",
"(  c #AD5A35",
")  c #AD5B3A",
"_  c #BA5F36",
"`  c #B86034",
"'  c #B7633E",
"]  c #BD633D",
"[  c #C76536",
"{  c #C0643E",
"}  c #D46E3F",
"|  c #D7713F",
" . c #84634D",
".. c #9F6147",
"X. c #946349",
"o. c #9E6E4F",
"O. c #966A52",
"+. c #A06146",
"@. c #A56D4C",
"#. c #B66442",
"$. c #BD6542",
"%. c #BC6844",
"&. c #A9704D",
"*. c #AE7853",
"=. c #C46A44",
"-. c #CC6D44",
";. c #C76B48",
":. c #D26E40",
">. c #C7734D",
",. c #C97249",
"<. c #D57143",
"1. c #DA7142",
"2. c #D5754A",
"3. c #C77E59",
"4. c #C6805B",
"5. c #5D7D82",
"6. c #348586",
"7. c #388585",
"8. c #338886",
"9. c #38878C",
"0. c #378B8B",
"q. c #3E898C",
"w. c #3B8F90",
"e. c #3A9394",
"r. c #5F8389",
"t. c #5F8A91",
"y. c #4B9699",
"u. c #4B9B9E",
"i. c #62868F",
"p. c #618B93",
"a. c #679097",
"s. c #679098",
"d. c #629E9E",
"f. c #4B9EA1",
"g. c #659DA2",
"h. c #5FA5AC",
"j. c #55AAAD",
"k. c #5DACB1",
"l. c #5DB1B5",
"z. c #5EBCB7",
"x. c #57B7BC",
"c. c #5EB4B9",
"v. c #5EBABD",
"b. c #64A0A7",
"n. c #64A2A9",
"m. c #61AAAE",
"M. c #60AAB0",
"N. c #60B1B6",
"B. c #61B7BA",
"V. c #60B9BC",
"C. c #5EBEC3",
"Z. c #5CC9CD",
"A. c #5BCFD2",
"S. c #5AD1D2",
/* pixels */
"                        6 e.q.q.e.7                         ",
"                    e.f.k.Z.b.b.Z.k.f.e.                    ",
"                7.j.h.v.i.x + + x r.B.m.j.u                 ",
"              i v.M.5.s # - ; ; * # p 5.m.V.i               ",
"            9.c.a.n @ V J ~ $.#.H T V @ n s.N.0.            ",
"            y.c.v & [ #.] ~ =.%.K } { _ = b V.y.            ",
"          y h.i.% m 1.,.{ ~ ;.=.K } -.-.N # i.n.y           ",
"          f.k.p , Z <.-.] ~ -.=.K } =.=.S B p k.f.          ",
"        . x.t.o ( A <.%.' ~ :.=.K } %.=.Y ' o t.v.X         ",
"        u l.c - #.H | ] #.~ -.=.L } #.-.Y { - x l.u         ",
"        6.C.q E %.A <.%.' ~ 2.=.P } %.=.Y =.D q C.8.        ",
"        7.g.k S Y S W Y J Y Y Y S E Y Y S Y A k d.6.        ",
"        8.z.*.-.>.,.;.>.>.-.,.>.} =.3.{ -.4.=.o.B.6.        ",
"        6.g.l B Z B Z Z Z Z Z Z B A Z B B Z B j g.6.        ",
"        6.V.h J ( B [ ( ^ Q _ ( J _ ( ^ S _ B 9 c.8.        ",
"        6.V.q Y #.F :.=.#.~ -.=.E -.%.#.Y 2.G 0 v.8.        ",
"        7.b.s Q l 2 <.=.' ~ -.-.W } =.#.T -.J s h.6.        ",
"        6.S.r T X.1 } $.$.~ -.-.L } ;.#.Y -.J r A.6.        ",
"        6.b.4 T +., <.%.] ~ ,.-.K } =.#.Y 2.G 4 g.8.        ",
"        8.x.q E ..1 <.%.$.~ =.-.K } =.#.Y <.F 9 C.6.        ",
"        7.M.8 Y z 3 | %.$.~ -.;.K } -.=.Y <.H 8 k.6.        ",
"        7.n.4 T X.1 :.$.{ ~ =.%.K } =.=.S :.F 4 g.6.        ",
"        6.c.0 T $.H <.#.$.~ =.%.K 1.=.;.Y ;.D 8 c.6.        ",
"        6.g.g G ( B ` ( ^ T ( / A _ ( ! A ( V d b.6.        ",
"        6.g.&.<.1.2.<.<.<.1.<.2.1.<.2.1.1.2.<.@.d.8.        ",
"        7.M.O.W I P W I I W ^ I R K U K R U P  .m.8.        ",
"        6.g.g M A m G A Z N A A M A A A m A ; d g.8.        ",
"        9.S.r E ;.G :.%.#.~ -.-.K } =.=.T ;.C r S.8.        ",
"        6.b.s E ;.S <.=.' ~ -.;.K :.=.#.Y =.D 4 g.6.        ",
"        t c O > Q : ! P L D Q W C Q W L > ^ : O r e         "
};
