/* XPM */
static char *out[] = {
/* columns rows colors chars-per-pixel */
"20 20 198 2 ",
"   c None",
".  c #011006",
"X  c #011107",
"o  c #021007",
"O  c #031108",
"+  c #031109",
"@  c #031208",
"#  c #021308",
"$  c #031209",
"%  c #01130A",
"&  c #03120A",
"*  c #03130B",
"=  c #071008",
"-  c #05130A",
";  c #03140A",
":  c #03170B",
">  c #04150A",
",  c #03160C",
"<  c #02170C",
"1  c #03170D",
"2  c #05160C",
"3  c #02190E",
"4  c #05180F",
"5  c #041910",
"6  c #051A10",
"7  c #0A1911",
"8  c #0A1A10",
"9  c #0C1A12",
"0  c #0D1C13",
"q  c #042217",
"w  c #032416",
"e  c #03271A",
"r  c #082519",
"t  c #08251B",
"y  c #032D1E",
"u  c #052C1F",
"i  c #052C20",
"p  c #062E20",
"a  c #062E21",
"s  c #063123",
"d  c #053D2D",
"f  c #2B372F",
"g  c #2C3831",
"h  c #2E3932",
"j  c #034B39",
"k  c #024C3B",
"l  c #0D4A3B",
"z  c #02614B",
"x  c #06624C",
"c  c #026D56",
"v  c #026F58",
"b  c #036F5A",
"n  c #027059",
"m  c #037059",
"M  c #02705A",
"N  c #02745E",
"B  c #06755D",
"V  c #067D63",
"C  c #037C64",
"Z  c #037D64",
"A  c #127A6A",
"S  c #47524C",
"D  c #49534E",
"F  c #4B544F",
"G  c #515B55",
"H  c #5E6762",
"J  c #03836B",
"K  c #01846B",
"L  c #02896F",
"P  c #048E73",
"I  c #029275",
"U  c #019177",
"Y  c #019277",
"T  c #039276",
"R  c #029579",
"E  c #019679",
"W  c #03967C",
"Q  c #7A827E",
"!  c #059C80",
"~  c #059F82",
"^  c #01A183",
"/  c #01A283",
"(  c #03A687",
")  c #04A78A",
"_  c #01AE8F",
"`  c #08B495",
"'  c #0EB59B",
"]  c #03B898",
"[  c #1FB39D",
"{  c #22AF9B",
"}  c #12BCA5",
"|  c #21B5A1",
" . c #03C09E",
".. c #02C5A2",
"X. c #03CBA8",
"o. c #05CCA8",
"O. c #08CBA8",
"+. c #09CDA8",
"@. c #05D3AE",
"#. c #03D7AF",
"$. c #04D4AF",
"%. c #12CDB4",
"&. c #12CFB6",
"*. c #03D7B1",
"=. c #02D8B1",
"-. c #03DAB2",
";. c #03DFB8",
":. c #18D1BB",
">. c #01E1B9",
",. c #00E3B9",
"<. c #01E0BA",
"1. c #01E1BA",
"2. c #01E2BA",
"3. c #05E1BC",
"4. c #18DEC8",
"5. c #12E4C5",
"6. c #1DE3CC",
"7. c #11EBCD",
"8. c #07F3CB",
"9. c #04F4CD",
"0. c #0DF5D1",
"q. c #1FF1DB",
"w. c #19F4D9",
"e. c #1FFDE5",
"r. c #20FDE4",
"t. c #20FCE5",
"y. c #21FCE5",
"u. c #21FCE6",
"i. c #20FEE6",
"p. c #39F9E2",
"a. c #78F0DD",
"s. c #55FCEB",
"d. c #62EEE8",
"f. c #67F2ED",
"g. c #6AF2ED",
"h. c #65F7F2",
"j. c #70FAF8",
"k. c #75FFFF",
"l. c #78FDFB",
"z. c #7AFFFE",
"x. c #9DA39E",
"c. c #9DF4E8",
"v. c #80FDFD",
"b. c #86FDFC",
"n. c #92FBF1",
"m. c #95FEFE",
"M. c #97FEFE",
"N. c #97FFFF",
"B. c #99FDFD",
"V. c #9BFEFD",
"C. c #9BFEFE",
"Z. c #9EFEFE",
"A. c #A4F9F4",
"S. c #ABF8F5",
"D. c #ACFBF6",
"F. c #A2FCFC",
"G. c #A5FDFD",
"H. c #AFFCFC",
"J. c #BAF4F3",
"K. c #BEFAF5",
"L. c #B2FCFC",
"P. c #B9FCFA",
"I. c #BBFDFD",
"U. c #BDFEFD",
"Y. c #C7D4D2",
"T. c #DFE2E2",
"R. c #CFF1EE",
"E. c #C3FDFC",
"W. c #C3FDFD",
"Q. c #C4FEFD",
"!. c #CBFCFB",
"~. c #CBFCFC",
"^. c #D4FDFB",
"/. c #D1FDFC",
"(. c #D3FCFC",
"). c #D5FDFC",
"_. c #DEFDFB",
"`. c #DAFDFC",
"'. c #D8FEFD",
"]. c #DFFEFD",
"[. c #E5E8E7",
"{. c #EFF4F3",
"}. c #E4FDFC",
"|. c #E4FCFD",
" X c #E6FDFE",
".X c #E9FCFB",
"XX c #EFFDFB",
"oX c #F5FCFA",
"OX c #F7FCFA",
"+X c #F0FDFD",
"@X c #FAFBF9",
"#X c #F9FDFC",
"$X c #F8FDFD",
"%X c #FBFDFC",
"&X c #FCFDFD",
"*X c #FCFFFE",
"=X c #FDFFFF",
"-X c #FEFEFE",
/* pixels */
"                                        ",
"              g f f f f h               ",
"            - [.*X*X*X=XT.%             ",
"        & H x.J.U.U.U.^.R.~ x =         ",
"        0 Q @XZ.N.M.B.P.K.8.B .         ",
"      7 &XXX}.V.m.G.+Xn.y.t.A o         ",
"      8 -X/.F.|.].'. X).D.u.5.+.4       ",
"      G _.!.L.(.~.E.W.W.S.4.7.0.<       ",
"  > F {.C.Q.OXb.z.z.z.z.g.W &.r.1       ",
"  $ D $Xm.I..Xv.k.k.k.k.f.Y %.i.` l 9   ",
"  $ D #XH.A.c.l.k.k.k.k.f.U ' :.O.d +   ",
"  $ D %X`.a.3.h.j.j.j.j.d.R J N M e +   ",
"  @ D oXs.p.w.| { { { { [ X... .L y O   ",
"  * S Y.r.q.6.) / / / ^ ( o.*.,.V s 2   ",
"      5 e.} b #.>.>.>.>.@.n _ ;.,       ",
"      3 9.] m *.2.2.2.2.@.v K E ;       ",
"      6 ! P Z =.2.1.1.1.$.C c z :       ",
"        # k I -.1.<.<.<.*.T j X         ",
"          r q i p a a a u w t           ",
"                                        "
};
