/* XPM */
static char *out[] = {
/* columns rows colors chars-per-pixel */
"30 30 126 2 ",
"   c #423C3E",
".  c #433D3F",
"X  c #464042",
"o  c #484242",
"O  c #4A4144",
"+  c #484244",
"@  c #494345",
"#  c #494544",
"$  c #4A4446",
"%  c #4B4547",
"&  c #4E4644",
"*  c #4F4745",
"=  c #4D4447",
"-  c #4C4646",
";  c #4D4747",
":  c #4C4648",
">  c #4D4749",
",  c #4C4849",
"<  c #4E4848",
"1  c #4F4949",
"2  c #4D494A",
"3  c #4E484A",
"4  c #4F494B",
"5  c #4F4B4A",
"6  c #4E4A4B",
"7  c #4F4B4C",
"8  c #504846",
"9  c #504748",
"0  c #50474A",
"q  c #51484B",
"w  c #504A4A",
"e  c #514B4B",
"r  c #514C49",
"t  c #544C4A",
"y  c #52494C",
"u  c #504A4C",
"i  c #514B4D",
"p  c #534A4D",
"a  c #544B4E",
"s  c #504C4D",
"d  c #524C4C",
"f  c #534D4D",
"g  c #514D4E",
"h  c #524C4E",
"j  c #534D4F",
"k  c #504E4F",
"l  c #524E4F",
"z  c #544F4C",
"x  c #574F4D",
"c  c #554C4F",
"v  c #564D4E",
"b  c #544E4E",
"n  c #554F4F",
"m  c #574E4F",
"M  c #54504D",
"N  c #55504D",
"B  c #56504E",
"V  c #57514F",
"C  c #58504E",
"Z  c #59514F",
"A  c #514F50",
"S  c #534F50",
"D  c #564D50",
"F  c #544E50",
"G  c #554F51",
"H  c #574E51",
"J  c #584F50",
"K  c #584F52",
"L  c #555150",
"P  c #545051",
"I  c #565050",
"U  c #575151",
"Y  c #555152",
"T  c #565052",
"R  c #575153",
"E  c #575352",
"W  c #565253",
"Q  c #575354",
"!  c #595051",
"~  c #585250",
"^  c #595351",
"/  c #5A5250",
"(  c #5B5351",
")  c #595053",
"_  c #5A5152",
"`  c #585252",
"'  c #595353",
"]  c #5B5253",
"[  c #585453",
"{  c #5C5452",
"}  c #5D5553",
"|  c #5A5154",
" . c #585254",
".. c #595355",
"X. c #5B5255",
"o. c #5C5354",
"O. c #5C5356",
"+. c #595554",
"@. c #585455",
"#. c #5A5454",
"$. c #5B5555",
"%. c #5A5655",
"&. c #5D5455",
"*. c #5E5654",
"=. c #5F5755",
"-. c #5D5457",
";. c #5E5556",
":. c #5C5656",
">. c #5D5757",
",. c #5F5657",
"<. c #5E5558",
"1. c #5F5659",
"2. c #605758",
"3. c #615859",
"4. c #62595A",
"5. c #635F5E",
"6. c #625E5F",
"7. c #61605E",
"8. c #64605F",
"9. c #635F60",
"0. c #656160",
"q. c #666261",
"w. c #656162",
"e. c #676362",
"r. c #666263",
"t. c #686463",
/* pixels */
"%.e.5.7.[ w.e.k t.q.7.E r.9.5.+.e.5.7.[ 0.e.A t.q.7.E q.6.8.",
"N U ` ! T ) ) c o.` U i <.K ) N U ` U T ) K h #.` U i <.K ) ",
"I 2  .u 4 3 J b G s F 3 i p ) I 2 R w 4 > J b T 5 G 3 i y ) ",
"] - K K K H &.;.I > H ) K _ } o.- K K K D ;.:.I , H ) K _ $.",
"_ H K H | c Z ] _ D H ) K N ! _ H ) H | h / ] ] c H ) K m J ",
"( h   G ] S > / F : X ..K Y # { a . F ' S > Z G > X ..) Y $ ",
") ) H O.) X.y K ) H | | ) X.u K | D -.K ..y ) ) K | | ) | y ",
"q 3.f o.& o.C O &.^ ~ * Z C t 0 3.f { = o.J @ o.( V 8 Z ! a ",
"v _ ` U ! |  .y ,.` ` e 1.) ^ v _ ` U U |  .p ;._ ` i ,.) ^ ",
"w J B f 2 D D , _ J b % T c D w J N f > D c 2 _ J z % T D D ",
">.@ Q S T 4 &.>.N , Y W j F ;.>.@ @.F Y 3 &.>.I > T R j j ;.",
"_ e ) ) o.K o.o._ h K ) X._ X._ e | ) X.H } o._ h K ) X._ ] ",
"] u $ D Z g u U n > % ! G F 3 o.i $ F Z i i U m > % ! G b > ",
") K > | | ) u | ) a y | K X.4 ) K - | ) ) u | ) a y | K | 6 ",
"D _ d / D K 0 c K b U H H H 0 D _ w ] D ) 0 c K v U H H H 0 ",
"1 4.' o.9 *.,.+ 4.,.] & =.( ' 1 4.` &.9 *.,.o 3.,.] * ;.] #.",
"N U ` Z R ) K a o.` ` i <.K ) x U ` Z T ) K h o.` ` u <.) ) ",
"I 2  .u 4 > K b T h n 3 h y Z L 6  .u 4 > K b T s n < h y ) ",
"] - H K K H &.;.I > H K H ` } ] - K K H D ;.:.I , H ) H _ &.",
"_ H K H | j Z _ ] c H ) T T J _ H ) H _ h / _ ] D H K T m ! ",
"{ h   P ' l > / F ; X  .K Y $ { s   F ' S > / G ; X ..) Y $ ",
"K ) H O.) X.y ) | H | | ) | u K ) D -.) X.y ) | K ) | ) X.p ",
"q 3.f ] % o.C @ &.( ~ * Z J h 0 2.f o.% o.J @ { ^ V 8 Z ! a ",
"v ] ` U J | X.y >._ ` e ,.) ] v ] ` U J | | y >._ ` r ,.) ] ",
"w ! B f 2 D D 2 _ J n % R D H w ! I b 3 D D 2 _ J N % R D H ",
":.@ Q S P 3 &.>.N > Y W h j &.>.@ Q S T 3 &.>.M : T R h j &.",
"_ e ) ) X.K o.{ U a K ) | _ O._ e | ) X.H &.{ _ h K ) X._ O.",
"] u $ j I 7 u B G : % I F j < _ u $ c I i u I m > % I F l 3 ",
"X.K : X.| | i | | a u X.) X.4 | K : O.| | u X.) a y O.) X.u ",
"H X.d ] H ) 3 H ) b ` K K K 0 H X.e o.H ) 4 c ) D U H K K 0 "
};
