/* XPM */
static char *out[] = {
/* columns rows colors chars-per-pixel */
"30 30 157 2 ",
"   c None",
".  c #17191B",
"X  c #191C1D",
"o  c #1B2124",
"O  c #22272A",
"+  c #252B2E",
"@  c #2A2E2D",
"#  c #3E2B24",
"$  c #252E31",
"%  c #292E31",
"&  c #2A3538",
"*  c #753214",
"=  c #7B371A",
"-  c #7E3D1E",
";  c #482F20",
":  c #5B3622",
">  c #7E4021",
",  c #6C523D",
"<  c #314144",
"1  c #374448",
"2  c #374C51",
"3  c #295E5E",
"4  c #396164",
"5  c #387A7D",
"6  c #796C5D",
"7  c #4D6A6F",
"8  c #4F7369",
"9  c #476C72",
"0  c #526F75",
"q  c #4E7077",
"w  c #4F7079",
"e  c #567175",
"r  c #597074",
"t  c #527278",
"y  c #6B736C",
"u  c #6E7877",
"i  c #617374",
"p  c #83350E",
"a  c #843611",
"s  c #843916",
"d  c #883B17",
"f  c #873C18",
"g  c #943F1A",
"h  c #833F22",
"j  c #95431D",
"k  c #9D491F",
"l  c #834022",
"z  c #8C4223",
"x  c #8D4B2A",
"c  c #944A26",
"v  c #9E4C24",
"b  c #934C2B",
"n  c #9F582D",
"m  c #884D30",
"M  c #8D5538",
"N  c #8D5A3E",
"B  c #9F5736",
"V  c #955336",
"C  c #A44C22",
"Z  c #A4512A",
"A  c #AD542B",
"S  c #B1542B",
"D  c #B55A2D",
"F  c #BC5C2F",
"G  c #A75930",
"H  c #A85B32",
"J  c #A35A39",
"K  c #B55A31",
"L  c #BA5D32",
"P  c #AD663B",
"I  c #BE6135",
"U  c #C46436",
"Y  c #CA6637",
"T  c #CB6936",
"R  c #C4653A",
"E  c #C86638",
"W  c #CB693A",
"Q  c #D16935",
"!  c #D66E3B",
"~  c #D9723D",
"^  c #8A5C43",
"/  c #8E7A5F",
"(  c #97725C",
")  c #957A5C",
"_  c #A16046",
"`  c #AA6242",
"'  c #BC6B45",
"]  c #B26748",
"[  c #B76A49",
"{  c #BC6E4B",
"}  c #AA7D57",
"|  c #B07C54",
" . c #BF7E52",
".. c #BC7659",
"X. c #967965",
"o. c #CD7345",
"O. c #CA7F47",
"+. c #CA724A",
"@. c #CF7B49",
"#. c #C47441",
"$. c #C17858",
"%. c #E27744",
"&. c #E77B45",
"*. c #EA7C45",
"=. c #E97C49",
"-. c #C48154",
";. c #D38451",
":. c #DA8652",
">. c #EE8648",
",. c #FC8B4A",
"<. c #F09856",
"1. c #F49453",
"2. c #EEA060",
"3. c #F0A360",
"4. c #4D7A83",
"5. c #517D82",
"6. c #338181",
"7. c #3A8081",
"8. c #3C8E8F",
"9. c #428D8F",
"0. c #4D8B8E",
"q. c #4B858A",
"w. c #50868A",
"e. c #538E8F",
"r. c #4C8C91",
"t. c #518F90",
"y. c #4B9194",
"u. c #4C9B99",
"i. c #519396",
"p. c #569B9E",
"a. c #589A9E",
"s. c #6C8B86",
"d. c #668E96",
"f. c #649B97",
"g. c #559BA1",
"h. c #5B9CA2",
"j. c #659DA6",
"k. c #689BA3",
"l. c #48A4A6",
"z. c #46A7A9",
"x. c #4FA5AB",
"c. c #58A3A5",
"v. c #52A4A9",
"b. c #5AA7AA",
"n. c #59A8AD",
"m. c #4FADB0",
"M. c #51ADB0",
"N. c #4EB5B6",
"B. c #4FB8BA",
"V. c #51B3B4",
"C. c #51B6B9",
"Z. c #5EB6BA",
"A. c #51B9BA",
"S. c #63A1A9",
"D. c #60ACB1",
"F. c #60B0B5",
"G. c #60B8BD",
/* pixels */
"                        3 8.9.8 G n Z                       ",
"                    6.N.j.G.s.o.<.Z E %.                    ",
"                  l.S.h.9 & : >.@.Z Y %.,                   ",
"                b.k.u.$ % @ c <.#.S Y *.> c.                ",
"              7.Z.7 O % % # ! 3.K A U *.F s.5               ",
"              n.d.o % % % ; *.2.D S U *.U 6 b.              ",
"            8.D.2 @ % % + x ,.;.L Z E *.Y M D.8.            ",
"            z.d.O $ % % @ x ,.;.K Z E *.E g t l.            ",
"            C.r.+ % % % @ x F I A j S &.U h 0.C.            ",
"            a.t + % % % @ x S ] ..+.W j H f r p.            ",
"            A.y.+ % % % @ x *.H d x J ' ' H f.C.            ",
"            a.0 + % % % @ x ,.:.L g j a z _ u h.            ",
"            V.r.+ % % % @ x ,.:.K n L &.A * e.N.            ",
"            p.t + % % % @ x ,.} ^ Z E =.U l t g.            ",
"            v.4.+ % @ % @ x ,.) ( Z E =.E z 5.v.            ",
"            v.4.+ % @ @ @ x ,.-.x S E *.Y z 5.x.            ",
"            p.w + % % % @ x ,.-.m S U &.U l t g.            ",
"            C.r.+ % % % @ x ,.| N A T &.E z y.N.            ",
"            p.0 + % % % @ b ,./ X.Z T *.T z r p.            ",
"            C.y.+ % % % @ x ,. .J Z U *.E l i.C.            ",
"            a.t + @ % % @ x ,.:.F A U *.L s y g.            ",
"            M.0.$ % % % @ x ,.:.A v D I R { 6 V.            ",
"            p.0 + % % % @ x ! v U o.$.[ b * i g.            ",
"            M.q.+ % % @ @ x S +.` V f k C = w.M.            ",
"            a.0 + % % % @ x Q p p a I *.E z e p.            ",
"            4 < . X X X X c ,.@.K A E *.E l 1 4             ",
"                          D ,.;.L A R %.c                   ",
"                          F ,.;.L Z L                       ",
"                          D ,.;.A c                         ",
"                          Z T P                             "
};
