/* XPM */
static char *out[] = {
/* columns rows colors chars-per-pixel */
"42 42 157 2 ",
"   c None",
".  c #010101",
"X  c #0B0505",
"o  c #070708",
"O  c #0B0708",
"+  c #070808",
"@  c #0B0B0D",
"#  c #130402",
"$  c #190603",
"%  c #1C0C0A",
"&  c #1D100B",
"*  c #0E0F11",
"=  c #100F13",
"-  c #0F1012",
";  c #121315",
":  c #1B1013",
">  c #151419",
",  c #1C171D",
"<  c #17191A",
"1  c #1A191F",
"2  c #2B0904",
"3  c #290E0C",
"4  c #330C05",
"5  c #3A0C05",
"6  c #20140D",
"7  c #32120F",
"8  c #241314",
"9  c #331311",
"0  c #341917",
"q  c #332412",
"w  c #1D1C23",
"e  c #221F26",
"r  c #211F28",
"t  c #1E2123",
"y  c #212626",
"u  c #25222B",
"i  c #29262F",
"p  c #262A2B",
"a  c #2A282E",
"s  c #352226",
"d  c #2A2731",
"f  c #2D2B35",
"g  c #362F30",
"h  c #2B3131",
"j  c #303637",
"k  c #33313C",
"l  c #353C3C",
"z  c #3A383C",
"x  c #410E06",
"c  c #4F1207",
"v  c #4D130B",
"b  c #551207",
"n  c #5D150B",
"m  c #411814",
"M  c #421F1F",
"N  c #571E1A",
"B  c #551A12",
"V  c #6D1507",
"C  c #6A190A",
"Z  c #7B1807",
"A  c #7E1A08",
"S  c #761A0C",
"D  c #631E13",
"F  c #681E15",
"G  c #4B2C15",
"H  c #512310",
"J  c #6F2317",
"K  c #6F261E",
"L  c #7D251C",
"P  c #5F2420",
"I  c #502C2F",
"U  c #5F2A2A",
"Y  c #4E2C30",
"T  c #5A2D30",
"R  c #443239",
"E  c #593236",
"W  c #53353C",
"Q  c #5A363B",
"!  c #692722",
"~  c #622F25",
"^  c #6F2F22",
"/  c #6A2C29",
"(  c #6B3527",
")  c #64383B",
"_  c #663235",
"`  c #7A503F",
"'  c #373540",
"]  c #393643",
"[  c #3C3946",
"{  c #3E3B4A",
"}  c #4E3640",
"|  c #4C3A45",
" . c #423D4C",
".. c #533740",
"X. c #573840",
"o. c #553E4A",
"O. c #384040",
"+. c #44404E",
"@. c #4E414E",
"#. c #424B4B",
"$. c #514147",
"%. c #464252",
"&. c #494555",
"*. c #4C4759",
"=. c #4E4A5B",
"-. c #475352",
";. c #4D5757",
":. c #4D5858",
">. c #6E4D45",
",. c #644949",
"<. c #52615F",
"1. c #5A5665",
"2. c #546061",
"3. c #596766",
"4. c #5B6969",
"5. c #636B67",
"6. c #616F6D",
"7. c #65626C",
"8. c #7C686B",
"9. c #706D78",
"0. c #657373",
"q. c #687573",
"w. c #6B7D7D",
"e. c #7E7B7B",
"r. c #841C0A",
"t. c #8C1E0C",
"y. c #921D07",
"u. c #981D07",
"i. c #931D0A",
"p. c #9A1E0A",
"a. c #A21F09",
"s. c #94210E",
"d. c #9A200B",
"f. c #8A2312",
"g. c #862B1C",
"h. c #822213",
"j. c #942310",
"k. c #A42009",
"l. c #802920",
"z. c #885331",
"x. c #985D34",
"c. c #9B5B3A",
"v. c #AB5C2E",
"b. c #B05C29",
"n. c #886331",
"m. c #9F643A",
"M. c #AB6E3F",
"N. c #A67535",
"B. c #D5671E",
"V. c #D76B20",
"C. c #D86B20",
"Z. c #946742",
"A. c #A4754F",
"S. c #CD9345",
"D. c #D69849",
"F. c #8A8A8B",
"G. c #A5A1A3",
/* pixels */
"                                                                                    ",
"                                                                                    ",
"                                                                                    ",
"                                                                                    ",
"                                                                                    ",
"                                                                                    ",
"                                                                                    ",
"                  . .                     . .                                       ",
"                  d i                   @ k .                                       ",
"                  > u 1 .             . k 1                                         ",
"                  u k 1 . . . . . .   .  .f .                                       ",
"                1 { k * . = d f f k .   w { k *                                     ",
"              . u %.d .   > g &.&.f .   o ] =.*                                     ",
"              . w &.] u w ; i +.%.w @ w w {  .*                                     ",
"                ,  .&.=. .d o.>.>.%.i &. . .d @                     ; < .           ",
"                  u ] &.&.&.>.V.b. .&.&.&.k .                     ; p l .           ",
"                  . 1 W Q $.,.b.c.&.E E  .O                     ; -.;..             ",
"                  . 1 ! r.! | &.&.W r.t.R O                   . p 0.;.@ @ .         ",
"                  . x v : H F W U C q % y.#                   ; O.#.h 6.#..         ",
"                  . 5 J z.n.2 t.C & S.U t.#                 . l 6.0.0.:.+ . . .     ",
"                  . 4 y.f.x.N.$ G D.K d.V #               . l M.B.Z.4.O.y 0.3.+     ",
"                      n i.g.^ r.f.( d.y.X                 . h M.B.A.2.p 2.0.3.+     ",
"                  o r e X x y.a.d.s.. X  .*             . 1 ; O.6.3.6.0.w.0.2.+     ",
"              . . ' &.{ u x y.u.k.d.@ k &.&.. .       . < - + > l w.w.w.4.< ;       ",
"            o ] &.*.&.w o x S m B r.X @ { &.+.&..   . < @         @ - - @           ",
"            . [ &. .f d I b 3 0 7 2 D z > [ %.*.o . t -                             ",
"            . - ; * 9 E o.8.e.@ g G.W &.n : * > . < *                               ",
"                  . 8 s u 1.7.f  .9.{ w Y @   . < -                                 ",
"                  . , , 3 ) o._ o./ { o w u . ; - +                                 ",
"                  . 9 9 4 f.l.j.l.p.P o F.a b &                                     ",
"                    4 2 2 h.L p.i.l.Z X F.t c #                                     ",
"                      . 8 Q .._ )  .U X < ;                                         ",
"                      . > | W &.@.Q k o 1 o                                         ",
"                      . @ M N i s D w . .                                           ",
"                      . o > = . o > = .                                             ",
"                        . . .     . . .                                             ",
"                                                                                    ",
"                                                                                    ",
"                                                                                    ",
"                                                                                    ",
"                                                                                    ",
"                                                                                    "
};
