/* XPM */
static char *out[] = {
/* columns rows colors chars-per-pixel */
"30 30 53 1 ",
"  c #020107",
". c #050307",
"X c #060307",
"o c #030108",
"O c #0A090C",
"+ c #0F0B0E",
"@ c #1A0B09",
"# c #1C0C09",
"$ c #0F0C10",
"% c #0F0D10",
"& c #0E0D11",
"* c #271109",
"= c #291109",
"- c #28110A",
"; c #3D1A0C",
": c #411C0D",
"> c #411D0D",
", c #5D270E",
"< c #5D280E",
"1 c #5E280E",
"2 c #60290E",
"3 c #61290E",
"4 c #622A0E",
"5 c #632A0E",
"6 c #632B0E",
"7 c #642B0E",
"8 c #652B0E",
"9 c #662B0E",
"0 c #642B10",
"q c #642B11",
"w c #682D10",
"e c #6E3010",
"r c #6E3011",
"t c #4F4E51",
"y c #4F4F51",
"u c #504F52",
"i c #545457",
"p c #923E11",
"a c #923E12",
"s c #933E12",
"d c #953F12",
"f c #963F12",
"g c #964012",
"h c #964013",
"j c #984011",
"k c #984012",
"l c #994012",
"z c #994112",
"x c #994013",
"c c #9E4212",
"v c #9F4312",
"b c #878789",
"n c #8D8D8E",
/* pixels */
"t+++++++++++++ii+++++++++++++t",
".gcccccccccccf  fccccccccccch.",
"Xkvvvvvvvvvvvk  jvvvvvvvvvvvxX",
"Xkvvvvvvvvvvvk  jvvvvvvvvvvvxX",
"Xkvvvvvvvvvvvk  jvvvvvvvvvvvxX",
"Xkvvvvvvvvvvvk  jvvvvvvvvvvvxX",
"o0eeeeeeeeeeew  weeeeeeeeeee0o",
"b                            b",
"&,55555@ ;5555555555; @55555,&",
"Xkvvvvv= 8vvvvvvvvvv8 =vvvvvxX",
"Xkvvvvv= 8vvvvvvvvvv8 =vvvvvxX",
"Xkvvvvv= 8vvvvvvvvvv8 =vvvvvxX",
"Xkvvvvv= 8vvvvvvvvvv8 =vvvvvxX",
"Xalllll* 2llllllllll3 *lllllsX",
"u                            u",
"u                            u",
"Xazzzzzzzzzzzp  pzzzzzzzzzzzsX",
"Xkvvvvvvvvvvvk  jvvvvvvvvvvvxX",
"Xkvvvvvvvvvvvk  jvvvvvvvvvvvxX",
"Xkvvvvvvvvvvvk  jvvvvvvvvvvvxX",
"Xkvvvvvvvvvvvk  jvvvvvvvvvvvxX",
"&<555555555551  155555555555<&",
"b                            b",
"oqrrrrr# :rrrrrrrrrr> #rrrrrqo",
"Xkvvvvv= 7vvvvvvvvvv9 =vvvvvxX",
"Xkvvvvv= 7vvvvvvvvvv9 =vvvvvxX",
"Xkvvvvv= 7vvvvvvvvvv9 =vvvvvxX",
"Xkvvvvv= 7vvvvvvvvvv9 =vvvvvxX",
".dccccc- 4cccccccccc6 -cccccf.",
"y++++++On$++++++++++%nO++++++t"
};
