/* XPM */
static char *out[] = {
/* columns rows colors chars-per-pixel */
"40 40 213 2 ",
"   c None",
".  c #030202",
"X  c #0A0503",
"o  c #070708",
"O  c #0A090C",
"+  c #08070A",
"@  c #1C0603",
"#  c #150A08",
"$  c #1C120D",
"%  c #0E0D11",
"&  c #131215",
"*  c #141319",
"=  c #1A161D",
"-  c #1B1B1D",
";  c #1A1516",
":  c #0F1516",
">  c #270B07",
",  c #390D07",
"<  c #2A130A",
"1  c #3E1706",
"2  c #3C1806",
"3  c #3A1509",
"4  c #371507",
"5  c #281716",
"6  c #341A14",
"7  c #371C1A",
"8  c #35231A",
"9  c #2F221D",
"0  c #1D1C23",
"q  c #231F25",
"w  c #1A2729",
"e  c #132F31",
"r  c #153435",
"t  c #222324",
"y  c #29272C",
"u  c #2D2A34",
"i  c #292730",
"p  c #302D38",
"a  c #2C3A3C",
"s  c #35343B",
"d  c #38272C",
"f  c #471709",
"g  c #58150B",
"h  c #4D1E12",
"j  c #66170B",
"k  c #7B1D0D",
"l  c #58210B",
"z  c #542A18",
"x  c #4D2A19",
"c  c #652708",
"v  c #742A05",
"b  c #762D0A",
"n  c #7C330E",
"m  c #7B251B",
"M  c #76261B",
"N  c #6B321A",
"B  c #7B3415",
"V  c #753517",
"C  c #67231D",
"Z  c #472A24",
"A  c #54362A",
"S  c #423937",
"D  c #593837",
"F  c #4E342C",
"G  c #6B2B28",
"H  c #752B24",
"J  c #6D3D2B",
"K  c #653926",
"L  c #743C24",
"P  c #7A4428",
"I  c #704A2D",
"U  c #393542",
"Y  c #3D3A45",
"T  c #3B3845",
"R  c #423E4D",
"E  c #4A3A44",
"W  c #433F50",
"Q  c #603C42",
"!  c #1C4848",
"~  c #314342",
"^  c #265757",
"/  c #355859",
"(  c #364A49",
")  c #305F62",
"_  c #2B6869",
"`  c #3D7C7C",
"'  c #3C6263",
"]  c #46414E",
"[  c #5B424B",
"{  c #514144",
"}  c #454151",
"|  c #4A4555",
" . c #4C4759",
".. c #4C4959",
"X. c #454E51",
"o. c #514E5F",
"O. c #455354",
"+. c #505D5C",
"@. c #7C5B49",
"#. c #704C42",
"$. c #75604E",
"%. c #524F62",
"&. c #555361",
"*. c #43706D",
"=. c #737972",
"-. c #6D7371",
";. c #8A1E0B",
":. c #9B1E08",
">. c #911D09",
",. c #A41F0A",
"<. c #99210D",
"1. c #84320E",
"2. c #8A2212",
"3. c #812216",
"4. c #962514",
"5. c #843613",
"6. c #8A3613",
"7. c #873B1D",
"8. c #89200F",
"9. c #A32009",
"0. c #862820",
"q. c #92411D",
"w. c #884528",
"e. c #934421",
"r. c #9B4B27",
"t. c #8A4E35",
"y. c #995437",
"u. c #9D512B",
"i. c #A34F2A",
"p. c #A44C24",
"a. c #A1502C",
"s. c #AA532A",
"d. c #BB592B",
"f. c #B1552C",
"g. c #AD5E3D",
"h. c #B35B36",
"j. c #986836",
"k. c #B6623D",
"l. c #A7753D",
"z. c #BA6026",
"x. c #D3661B",
"c. c #C1673E",
"v. c #DE753E",
"b. c #D26B26",
"n. c #E4753E",
"m. c #BC6745",
"M. c #BC6945",
"N. c #B76747",
"B. c #B3774D",
"V. c #C46A44",
"C. c #CC6D45",
"Z. c #C96E4A",
"A. c #D36E45",
"S. c #D26E49",
"D. c #CD7245",
"F. c #CE714A",
"G. c #D27146",
"H. c #DC7544",
"J. c #D7774A",
"K. c #E27642",
"L. c #ED7E48",
"P. c #EC804B",
"I. c #EE8047",
"U. c #F68446",
"Y. c #F68349",
"T. c #EC8151",
"R. c #CF8361",
"E. c #3E7F80",
"W. c #5E7E85",
"Q. c #647E84",
"!. c #388586",
"~. c #3C9495",
"^. c #438789",
"/. c #5D8185",
"(. c #5A848A",
"). c #499B9A",
"_. c #599498",
"`. c #518B90",
"'. c #638287",
"]. c #658B93",
"[. c #6B959D",
"{. c #619091",
"}. c #579FA6",
"|. c #6B95A1",
" X c #639CA2",
".X c #6898A2",
"XX c #59A5AB",
"oX c #43B3B3",
"OX c #56B9BA",
"+X c #4FAEB1",
"@X c #64A7AD",
"#X c #63ACB4",
"$X c #62B4BB",
"%X c #61B5B9",
"&X c #5FBDC2",
"*X c #60BEC3",
"=X c #59C5C7",
"-X c #58D2CF",
";X c #5DCED2",
":X c #55D2D3",
">X c #5BD1D2",
",X c #55DCDC",
"<X c #59DBDC",
"1X c #4ED0CE",
"2X c #64C8CB",
"3X c #62D3D8",
"4X c #53DEE0",
"5X c #56E7E7",
"6X c #59F1F2",
"7X c #5DEDF2",
"8X c #B2B0B4",
"9X c #C2C0C5",
"0X c gray94",
/* pixels */
"                                  ^ _ _ _ _ )                                   ",
"                            e ).oX5X$X#X#X%X5XoX).e                             ",
"                          _ 6X#X[.[.7X[.[.7X X[.@X6X_                           ",
"                      !.+X#X%X%X'.'.~ p u ~ (./.#X%X%X+X~.                      ",
"                    ` >XOX[.].` 4 4 v v v v 4 4 ` ].|.OX-X`                     ",
"                  ^.@X[.#X*.9 c n v H.k.g.g.v 1.c 6 *.#X[.@X^.                  ",
"                e <X[.[.X.l b q.M.6.Y.M.N.M.1.H.r.v g O.[..X<Xr                 ",
"                &XXX;XO.c f.V.M.M.6.Y.M.N.N.6.c.S.V.s.c X.2XXX2X                ",
"              ^ %X[.W.f 7.d.A.V.G.6.U.M.V.M.6.V.C.A.f.p.f W.|.&X^               ",
"              !.#X.X& b g.d.c.V.C.5.Y.D.S.N.6.V.V.A.i.K.b ; .X#X!.              ",
"            e ;X2X_.2 e.g.d.k.C.A.5.Y.G.F.M.6.V.m.S.u.n.r.3 _.2X;Xr             ",
"            e ;X.XO.B I X x m.C.M.5.Y.G.F.M.6.V.X X r.n.m.B / [.2Xr             ",
"            !.%X].S B J t Y 7 C.m.5.Y.F.V.V.6.. &.. s.n.V.B S {.$X!.            ",
"            <X5X=X3 P.N.K - s 6 m.5.U.C.m.m.X W + k.f.n.m.N.4 =X5X4X            ",
"            >X[.(.3 T.J t } u . X . X X X m.. R | X u.K.M.N.f -.[.:X            ",
"            >X[.=.5.f t W p < c O T ] } ..X b o R ..# 1.5.5.V =.[.:X            ",
"            <X>XP K.K 0 | s X 8 a.% } %.O k.# . R  .. D.R.F.G.V 3X,X            ",
"            >X[.P D.z 0 } } ] Y 5 U Y ..Y > ( U R R . g.N.g.N.I [.:X            ",
"            >X[.'.f c 1 w W  .| } { b.z.W W  . .R + j v v v f Q..X:X            ",
"            :XXX`.f L.g.A q R } ..[ b.b. .W W  .& t.u.H.V.V.1 ^.}.:X            ",
"            >X X(.3 L.N.J & D m G ] #.#.W m 2.W . N.i.K.G.G.1 (.@X:X            ",
"            >X|.W.4 P.$.D > C , f G W R H , f H . m.a.n.C.C.2 W.|.:X            ",
"            -X[./.4 J.-.t , 3.Z j.> M H > l.Z ,.. m.a.K.V.Z.4 /..X^             ",
"            <X5X=X4 P.@.J > ;.7.B.I g f I l.m :.. m.a.n.D.D.2 OX~.a             ",
"            >X[.W.4 P.@.t.h j >.5.j.f g l.3.:.f K m.a.n.G.V.2 W.: +.            ",
"            ;X[.W.4 P.@.t.z 6 g j M :.9.M j g 0 P k.a.n.C.V.f ( * a             ",
"            <X5X=X1 V.F F u Y & @ >.:.,.,.. =  .q w.N K.D.D.< O - !             ",
"            >X.X(.< K * p o.R i @ >.k ;.:.. p | %.* * a.V.y.# - w =X            ",
"            >X|./.. i ..W R i ; , j 7 6 j > = u } | o.. P ; - w ].:X            ",
"            <X2XXXX t Y U i 5 Q 3.t 5 5 t 3. .@ U s ] . O t X XX=X,X            ",
"            :X#X_.# 6 5 # > G R &.8X% * 9X} Y 3.. 5 . o w 5 4 `.#X:X            ",
"            ;X[.'.g p.e.z * p # E | E | S ... U . w.X t X q.l '.[.:X            ",
"            :X XP H.K.J.P ; d > 4.Q 2.Q 2.Q . 0 U X t # F.H.H.P  X:X            ",
"            <X*XP K.m.B.J , j @ >.>.,.:.<.2.. 0Xo ;.. m.B.M.M.L 2X,X            ",
"            ;X[.=.B B B 1.c X @ m E ;.3.W <.o o w X X n n n B -.[.:X            ",
"            >X[./.4 d.i.e.7.N % | E  .| E  .. y X p.7.s.r.r.2 /.[.:X            ",
"            <X<XOXf L.V.g.d.w.O Z 2.T E <.i . X V.A.a.K.M.N.1 +X,X,X            ",
"            >X[.W.3 L.Z.k.d.w.+ = ; o o = = . m.V.V.i.n.M.M.1 W.[.:X            ",
"            >X[.W.6 L.m.c.d.t.. . # n.V.X X . V.m.m.i.n.V.m.f W.[.:X            ",
"            ) ~ s # i.e.7.V e.7.w.l s.e.7.e.h e.e.q.N e.e.w.$ a ~ /             "
};
